<svg width="22" height="21" viewBox="0 0 22 21" fill="none" xmlns="http://www.w3.org/2000/svg">
<path d="M21.96 7.05259C21.96 4.91621 20.2281 3.1843 18.0917 3.1843C16.7564 3.1843 15.5792 3.86089 14.884 4.8899C14.8031 2.17558 12.5776 0 9.84366 0C7.0586 0 4.80081 2.25775 4.80081 5.04285C4.80081 7.12779 6.06615 8.91711 7.87075 9.68504C7.8675 9.70261 7.86499 9.7203 7.86214 9.73791H6.18406C5.66791 9.73791 5.24946 10.1564 5.24946 10.6725V13.1343L1.45127 11.2865C0.811673 10.9754 0 11.351 0 11.9581V17.9976C0 18.6047 0.811716 18.9804 1.45127 18.6692L5.24946 16.8214V19.2832C5.24946 19.7994 5.66791 20.2178 6.18406 20.2178H19.0519C19.5681 20.2178 19.9865 19.7994 19.9865 19.2832V10.6725C19.9865 10.5928 19.9755 10.5159 19.9567 10.4421C21.1509 9.78356 21.96 8.51272 21.96 7.05259Z" fill="#AE2121"/>
<path d="M4.08917 12.5698L2.64924 11.8693V18.0864L4.08917 17.3859V12.5698Z" fill="#597B91"/>
<path d="M13.7119 5.04286C13.7119 7.17924 11.98 8.91114 9.84366 8.91114C7.70728 8.91114 5.97537 7.17924 5.97537 5.04286C5.97537 2.90648 7.70728 1.17457 9.84366 1.17457C11.98 1.17457 13.7119 2.90643 13.7119 5.04286ZM18.0917 4.08528C16.4529 4.08528 15.1244 5.4138 15.1244 7.05259C15.1244 8.69138 16.4529 10.0199 18.0917 10.0199C19.7305 10.0199 21.059 8.69138 21.059 7.05259C21.059 5.4138 19.7305 4.08528 18.0917 4.08528Z" fill="#597B91"/>
<path d="M11.8534 5.04285C11.8534 6.15282 10.9536 7.05259 9.84371 7.05259C8.73378 7.05259 7.83397 6.15278 7.83397 5.04285C7.83397 3.93293 8.73378 3.03312 9.84371 3.03312C10.9536 3.03312 11.8534 3.93289 11.8534 5.04285ZM18.0917 5.04285C16.9817 5.04285 16.082 5.94266 16.082 7.05259C16.082 8.16251 16.9818 9.06232 18.0917 9.06232C19.2017 9.06232 20.1014 8.16251 20.1014 7.05259C20.1014 5.94266 19.2017 5.04285 18.0917 5.04285Z" fill="#ADB8BC"/>
<path d="M16.3735 18.8497H8.89176C8.61938 18.8497 8.39858 18.6289 8.39858 18.3565V16.411C8.39858 16.1386 8.61938 15.9178 8.89176 15.9178H16.3735C16.6459 15.9178 16.8667 16.1386 16.8667 16.411V18.3565C16.8667 18.6289 16.6459 18.8497 16.3735 18.8497Z" fill="#ADB8BC"/>
<path d="M10.6545 18.3306C11.1774 18.3306 11.6013 17.9067 11.6013 17.3838C11.6013 16.8608 11.1774 16.4369 10.6545 16.4369C10.1315 16.4369 9.70763 16.8608 9.70763 17.3838C9.70763 17.9067 10.1315 18.3306 10.6545 18.3306Z" fill="#FF473E"/>
<path d="M14.19 17.9268H13.234C12.9636 17.9268 12.7444 17.7076 12.7444 17.4373V17.3303C12.7444 17.0599 12.9636 16.8407 13.234 16.8407H14.19C14.4604 16.8407 14.6795 17.0599 14.6795 17.3303V17.4373C14.6795 17.7076 14.4604 17.9268 14.19 17.9268Z" fill="#AE2121"/>
</svg>
