<svg width="6" height="5" viewBox="0 0 6 5" fill="none" xmlns="http://www.w3.org/2000/svg">
<path d="M3.88919 2.95436C3.61153 2.95436 3.47802 3.10915 3.02235 3.10915C2.56667 3.10915 2.43413 2.95436 2.15551 2.95436C1.43765 2.95436 0.855245 3.53677 0.855245 4.25462V4.50229C0.855245 4.75866 1.06325 4.96667 1.31962 4.96667H4.72507C4.98144 4.96667 5.18945 4.75866 5.18945 4.50229V4.25462C5.18945 3.53677 4.60704 2.95436 3.88919 2.95436ZM4.72507 4.50229H1.31962V4.25462C1.31962 3.79411 1.695 3.41874 2.15551 3.41874C2.29675 3.41874 2.52604 3.57353 3.02235 3.57353C3.52252 3.57353 3.74697 3.41874 3.88919 3.41874C4.3497 3.41874 4.72507 3.79411 4.72507 4.25462V4.50229ZM3.02235 2.79956C3.79147 2.79956 4.41548 2.17555 4.41548 1.40643C4.41548 0.6373 3.79147 0.0132904 3.02235 0.0132904C2.25322 0.0132904 1.62921 0.6373 1.62921 1.40643C1.62921 2.17555 2.25322 2.79956 3.02235 2.79956ZM3.02235 0.477669C3.53413 0.477669 3.9511 0.894643 3.9511 1.40643C3.9511 1.91821 3.53413 2.33519 3.02235 2.33519C2.51056 2.33519 2.09359 1.91821 2.09359 1.40643C2.09359 0.894643 2.51056 0.477669 3.02235 0.477669Z" fill="white"/>
</svg>
